<svg  width="auto" height="auto" overflow="visible" style="display: block;" viewBox="0 0 46.3013 11.0348" fill="none" xmlns="http://www.w3.org/2000/svg">
<g id="wmms">
<path id="Vector" d="M44.0012 0.0664062H45.6835V3.43111H44.0012V0.0664062ZM41.0894 1.74876L40.9923 1.78111C40.9923 1.78111 41.5747 2.26641 41.5747 2.29876C41.607 2.33111 41.6394 2.33111 41.607 2.42817C41.5747 2.52523 41.5423 2.62229 41.5423 2.62229C41.5423 2.62229 42.06 2.52523 42.1247 2.49288C42.1894 2.49288 42.2217 2.49288 42.2217 2.55758C42.2217 2.62229 42.1894 3.17229 42.1894 3.17229H42.3512C42.3512 3.17229 42.3188 2.58994 42.3188 2.55758C42.3188 2.49288 42.3512 2.49288 42.4159 2.49288C42.4806 2.49288 42.9982 2.62229 42.9982 2.62229C42.9982 2.62229 42.9659 2.49288 42.9335 2.42817C42.9012 2.33111 42.9335 2.33111 42.9659 2.29876C42.9982 2.26641 43.5482 1.78111 43.5482 1.78111L43.4512 1.74876C43.3864 1.71641 43.4188 1.68405 43.4188 1.6517C43.4188 1.61935 43.5159 1.29582 43.5159 1.29582C43.5159 1.29582 43.257 1.36052 43.2247 1.36052C43.1923 1.36052 43.16 1.36052 43.16 1.32817C43.16 1.29582 43.0953 1.16641 43.0953 1.16641C43.0953 1.16641 42.8041 1.48994 42.7717 1.52229C42.707 1.58699 42.6423 1.52229 42.6747 1.45758C42.6747 1.39288 42.8365 0.713465 42.8365 0.713465C42.8365 0.713465 42.6747 0.810524 42.61 0.842877C42.5453 0.87523 42.5129 0.87523 42.5129 0.810524C42.4806 0.745818 42.2865 0.389936 42.2865 0.357583C42.2865 0.357583 42.0923 0.745818 42.06 0.810524C42.0276 0.87523 41.9953 0.87523 41.9629 0.842877C41.8982 0.810524 41.7364 0.713465 41.7364 0.713465C41.7364 0.713465 41.8982 1.39288 41.8982 1.45758C41.8982 1.52229 41.8659 1.55464 41.8012 1.52229L41.4776 1.16641C41.4776 1.16641 41.4453 1.26347 41.4129 1.29582C41.4129 1.32817 41.3806 1.36052 41.3482 1.32817C41.2835 1.32817 41.0247 1.26347 41.0247 1.26347C41.0247 1.26347 41.1217 1.58699 41.1541 1.61935C41.1541 1.6517 41.1541 1.71641 41.0894 1.74876ZM38.9217 0.0664062H40.6041V3.43111H38.9217V0.0664062Z" fill="var(--fill-0, #FF0000)"/>
<path id="Vector_2" d="M46.0393 10.1609C45.9099 10.4521 45.6511 10.5491 45.4893 10.5491C45.2952 10.5491 44.7129 10.5168 44.7129 8.99618C44.7129 8.99618 44.7129 5.92266 44.7129 5.72854C44.7129 4.7256 43.9364 3.91677 41.9305 3.91677C39.7629 3.91677 39.7305 4.98442 39.7305 5.24324C39.6982 5.53442 39.8599 5.85795 40.4099 5.85795C40.8952 5.85795 41.0246 5.30795 41.0893 5.11383C41.154 4.88736 41.1864 4.2403 42.0599 4.2403C42.804 4.2403 43.257 4.88736 43.2893 5.8256C43.2893 5.98736 43.2893 6.08442 43.2893 6.18148C43.2893 6.24619 43.2893 6.27854 43.2893 6.34324V6.3756C43.2246 6.69913 43.0629 6.86089 42.7717 6.9903C42.3834 7.18442 41.2511 7.34618 41.1217 7.37854C40.6687 7.4756 39.407 7.79913 39.4393 9.1256C39.4717 10.4197 40.7658 10.8727 41.6717 10.8403C42.5452 10.808 43.0629 10.4521 43.2893 10.2579C43.4187 10.1609 43.4187 10.1609 43.5158 10.2903C43.6452 10.4197 44.0658 10.8403 45.0687 10.8403C46.104 10.8403 46.2334 10.355 46.2982 10.1932C46.3305 10.0962 46.104 9.99913 46.0393 10.1609ZM41.9952 10.5168C41.0893 10.5168 40.8629 9.77266 40.8629 9.38442C40.8629 9.02854 41.057 8.28442 41.9629 7.76677C41.9629 7.76677 42.3834 7.50795 43.1923 7.18442C43.2246 7.18442 43.257 7.18442 43.257 7.18442C43.257 7.18442 43.2893 7.21677 43.2893 7.24913V7.28148V7.31383V8.67266C43.2893 9.7403 42.7717 10.5168 41.9952 10.5168ZM39.0187 10.4844C38.8893 10.4521 38.0805 10.5491 38.0805 8.0903C38.0805 5.63148 38.0805 0.35795 38.0805 0.35795C38.0805 0.260891 38.0805 0.00206783 37.7893 0.00206783C37.4982 0.00206783 35.557 0.0991266 35.4276 0.13148C35.2982 0.13148 35.2011 0.293244 35.4276 0.293244C35.654 0.325597 36.6893 0.390303 36.6893 2.10501C36.6893 2.94619 36.6893 3.78736 36.6893 4.40207C36.6893 4.43442 36.6893 4.46677 36.6893 4.46677C36.6893 4.53148 36.6893 4.56383 36.657 4.59619C36.657 4.59619 36.657 4.59619 36.657 4.62854C36.6246 4.66089 36.5923 4.62854 36.4952 4.56383C36.3334 4.43442 35.5893 3.98148 34.6511 3.98148C33.1305 3.98148 31.254 5.08148 31.254 7.34619C31.254 9.77266 32.9687 10.9374 34.7482 10.9374C35.6217 10.9374 36.2364 10.5491 36.4629 10.4197C36.7217 10.258 36.6893 10.2903 36.7217 10.5168C36.754 10.6785 36.7217 11.0021 37.1746 10.9697C37.6599 10.905 38.8246 10.7756 39.0511 10.7432C39.2776 10.6462 39.2129 10.5168 39.0187 10.4844ZM35.007 10.5815C33.5834 10.5815 32.8393 8.89913 32.8393 7.28148C32.8393 5.50207 33.8423 4.30501 34.9099 4.36971C36.3011 4.46677 36.657 5.56677 36.6893 7.5403C36.6893 7.66971 36.6893 7.79913 36.6893 7.96089C36.657 9.90207 35.8482 10.5815 35.007 10.5815ZM31.2217 10.1609C31.0923 10.4521 30.8334 10.5491 30.6717 10.5491C30.4776 10.5491 29.8952 10.5168 29.8952 8.99618C29.8952 8.99618 29.8952 5.92266 29.8952 5.72854C29.8952 4.7256 29.1187 3.91677 27.1129 3.91677C24.9452 3.91677 24.9129 4.98442 24.9129 5.24324C24.8805 5.53442 25.0423 5.85795 25.5923 5.85795C26.0776 5.85795 26.207 5.30795 26.2717 5.11383C26.3364 4.88736 26.3687 4.2403 27.2423 4.2403C27.9864 4.2403 28.4717 4.88736 28.4717 5.85795V5.8903C28.4717 5.92266 28.4717 5.95501 28.4717 5.95501V6.05207C28.4717 6.08442 28.4717 6.14913 28.4717 6.18148C28.4393 6.66677 28.3099 6.82854 27.9217 7.02266C27.5334 7.21677 26.4011 7.37854 26.2717 7.41089C25.8187 7.50795 24.557 7.83148 24.5893 9.15795C24.6217 10.4521 25.9158 10.905 26.8217 10.8727C27.6952 10.8403 28.2129 10.4844 28.4393 10.2903C28.5687 10.1932 28.5687 10.1932 28.6658 10.3227C28.7952 10.4521 29.2158 10.8727 30.2187 10.8727C31.254 10.8727 31.3834 10.3874 31.4482 10.2256C31.5129 10.0962 31.3187 9.99913 31.2217 10.1609ZM27.2099 10.5168C26.304 10.5168 26.0776 9.77266 26.0776 9.38442C26.0776 9.02854 26.2717 8.28442 27.1776 7.76677C27.1776 7.76677 27.5982 7.50795 28.407 7.18442C28.4393 7.18442 28.4717 7.18442 28.4717 7.18442V7.21677C28.4717 7.24913 28.4717 7.28148 28.4717 7.34619V7.31383C28.4717 7.31383 28.4717 7.31383 28.4717 7.34619V8.70501C28.4717 9.7403 27.954 10.5168 27.2099 10.5168ZM24.104 10.4844C23.8452 10.4197 23.3923 10.1285 23.3923 8.70501V6.11677C23.3923 5.50207 23.457 3.91677 21.0305 3.91677C19.7687 3.91677 19.057 4.56383 18.9923 4.59619C18.8952 4.69324 18.8305 4.7256 18.7982 4.56383C18.7658 4.43442 18.7011 4.2403 18.6687 4.11089C18.6364 4.01383 18.5717 3.91677 18.3452 3.94913C18.1187 3.98148 16.6952 4.20795 16.4364 4.27266C16.2099 4.33736 16.2746 4.43442 16.4364 4.46677C16.5982 4.49913 17.3746 4.56383 17.3746 5.8903C17.3746 7.21677 17.3746 8.67266 17.3746 8.67266C17.3746 10.2903 17.0511 10.4197 16.7599 10.5168C16.3717 10.6138 16.5658 10.7432 16.7276 10.7432C16.7276 10.7432 19.607 10.7432 19.6717 10.7432C19.8658 10.7432 19.9629 10.5491 19.5746 10.4844C19.1864 10.4197 18.8305 10.1932 18.8305 8.93148C18.8305 8.80207 18.8305 7.41089 18.8305 7.15207C18.8305 6.47266 18.6687 4.40207 20.5452 4.36971C21.8717 4.33736 22.0011 5.43736 22.0011 6.14913V8.89913C22.0011 10.0315 21.6776 10.3874 21.2893 10.4521C20.9334 10.5168 20.9982 10.6785 21.1923 10.6785C21.257 10.6785 24.2011 10.6785 24.2011 10.6785C24.3629 10.7432 24.5246 10.5815 24.104 10.4844ZM16.2423 10.1609C16.1129 10.4521 15.854 10.5491 15.6923 10.5491C15.4982 10.5491 14.9158 10.5168 14.9158 8.99618C14.9158 8.99618 14.9158 5.92266 14.9158 5.72854C14.9158 4.7256 14.1393 3.91677 12.1334 3.91677C9.9658 3.91677 9.93345 4.98442 9.93345 5.24324C9.90109 5.53442 10.0629 5.85795 10.6129 5.85795C11.0982 5.85795 11.2276 5.30795 11.2923 5.11383C11.357 4.88736 11.3893 4.2403 12.2629 4.2403C13.007 4.2403 13.4599 4.88736 13.4923 5.8256C13.4923 5.98736 13.4923 6.08442 13.4923 6.18148C13.4923 6.24619 13.4923 6.31089 13.4599 6.34324V6.3756C13.3952 6.69913 13.2334 6.86089 12.9423 6.9903C12.554 7.18442 11.4217 7.34618 11.2923 7.37854C10.8393 7.4756 9.57757 7.79913 9.60992 9.1256C9.64227 10.4197 10.9364 10.8727 11.8423 10.8403C12.7158 10.808 13.2334 10.4521 13.4599 10.2579C13.5893 10.1609 13.5893 10.1609 13.6864 10.2903C13.8158 10.4197 14.2364 10.8403 15.2393 10.8403C16.2746 10.8403 16.404 10.355 16.4687 10.1932C16.5334 10.0962 16.307 9.99913 16.2423 10.1609ZM12.1982 10.5168C11.2923 10.5168 11.0658 9.77266 11.0658 9.38442C11.0658 8.99618 11.2599 8.28442 12.1658 7.76677C12.1658 7.76677 12.5864 7.50795 13.3952 7.18442C13.4276 7.18442 13.4599 7.18442 13.4599 7.18442C13.4599 7.18442 13.4923 7.21677 13.4923 7.24913C13.4923 7.24913 13.4923 7.28148 13.4923 7.31383V7.34619V8.70501C13.4923 9.7403 12.9746 10.5168 12.1982 10.5168ZM9.09227 7.70207C8.76874 8.73736 8.15404 10.4197 5.92168 10.4844C3.59227 10.5168 2.20109 8.93148 2.13639 5.98736C2.03933 2.84913 3.39815 0.455009 5.50109 0.390303C7.86286 0.35795 8.70404 3.17266 8.73639 3.59324C8.76874 3.91677 9.18933 3.88442 9.18933 3.56089C9.18933 3.39913 8.99521 0.616774 8.93051 0.293244C8.8658 -0.0302851 8.60698 0.0991267 8.54227 0.228538C8.50992 0.325597 8.57462 0.13148 8.44521 0.422656C8.3158 0.713832 7.95992 0.552068 7.83051 0.519715C7.44227 0.35795 6.69815 -0.0302851 5.50109 0.00206783C2.75109 0.0667737 -0.0636111 2.10501 0.00109476 5.66383C0.0658006 9.1256 2.84815 11.0668 5.43639 11.0344C7.79815 11.0021 9.12462 9.51383 9.51286 7.79913C9.64227 7.37854 9.22168 7.28148 9.09227 7.70207Z" fill="var(--fill-0, black)"/>
</g>
</svg>
