<svg  width="auto" height="auto" overflow="visible" style="display: block;" viewBox="0 0 60.41 14" fill="none" xmlns="http://www.w3.org/2000/svg">
<g id="DeepMind_new_logo 1" clip-path="url(#clip0_2051_39)">
<path id="path863" d="M9.9843 0.666181C9.10883 0.252948 8.0677 1.52588e-05 7.07907 1.52588e-05C4.09497 1.52588e-05 2.30998 2.46985 2.50201 4.88414C2.58904 5.97614 3.12524 7.03267 4.01191 7.85891C4.32949 8.15645 4.68441 8.41144 5.06774 8.61747C4.77772 8.27194 4.58613 7.85467 4.51311 7.40951C4.31477 6.19617 5.11604 4.41141 7.16237 4.41141C9.36317 4.41141 11.7861 6.50371 11.991 9.07644C12.1163 10.6503 11.5196 12.0671 10.5109 13.0569C12.5972 11.8452 14 9.5865 14 7.00001C14 4.20141 12.3578 1.78641 9.9843 0.666181Z" fill="var(--fill-0, #0053D6)"/>
<path id="path865" d="M11.4979 9.11586C11.4109 8.02386 10.8747 6.96733 9.98804 6.1411C9.67045 5.84356 9.31553 5.58856 8.9322 5.38253C9.22223 5.72806 9.41382 6.14533 9.48684 6.5905C9.68517 7.80383 8.8839 9.58859 6.83757 9.58859C4.63678 9.58859 2.21384 7.4963 2.00898 4.92333C1.88368 3.3495 2.48031 1.9327 3.48901 0.942903C1.40278 2.15484 -1.94719e-05 4.4135 -1.94719e-05 7C-1.94719e-05 9.79859 1.64218 12.2136 4.01564 13.3338C4.89111 13.7471 5.93224 14 6.92087 14C9.90497 14 11.69 11.5302 11.4979 9.11586Z" fill="var(--fill-0, #0053D6)"/>
<path id="path867" d="M19.7353 3.50001H17.5053V10.5H19.7353C22.1951 10.5 23.3251 9.16021 23.3251 7.01028C23.3251 4.84985 22.1951 3.50001 19.7353 3.50001ZM19.7052 9.66001H18.4954V4.32998H19.7052C21.6451 4.32998 22.3153 5.34988 22.3153 7.00981C22.3153 8.65971 21.6451 9.66001 19.7052 9.66001Z" fill="var(--fill-0, #0053D6)"/>
<path id="path869" d="M26.2798 5.41989C24.7995 5.41989 23.7897 6.46989 23.7897 8.03976C23.7897 9.58955 24.8098 10.6197 26.2695 10.6197C27.4397 10.6197 28.2496 9.91972 28.5196 8.98965H27.5295C27.3296 9.47965 26.8897 9.79955 26.2695 9.79955C25.4995 9.79955 24.8198 9.25985 24.7596 8.24976H28.6495C28.6596 8.06986 28.6596 7.91982 28.6596 7.77959C28.6596 6.49976 27.7395 5.41989 26.2798 5.41989ZM24.7799 7.54976C24.8898 6.68992 25.5299 6.23982 26.2698 6.23982C27.0498 6.23982 27.6399 6.73986 27.6798 7.54976H24.7799Z" fill="var(--fill-0, #0053D6)"/>
<path id="path871" d="M31.6693 5.41989C30.1893 5.41989 29.1794 6.46989 29.1794 8.03976C29.1794 9.58955 30.1993 10.6197 31.6593 10.6197C32.8292 10.6197 33.6391 9.91972 33.9093 8.98965H32.9193C32.7191 9.47965 32.2793 9.79955 31.6593 9.79955C30.8893 9.79955 30.2094 9.25985 30.1494 8.24976H34.0391C34.0491 8.06986 34.0491 7.91982 34.0491 7.77959C34.0491 6.49976 33.1291 5.41989 31.6693 5.41989ZM30.1699 7.54976C30.2801 6.68992 30.9199 6.23982 31.66 6.23982C32.44 6.23982 33.0299 6.73986 33.0698 7.54976H30.1699Z" fill="var(--fill-0, #0053D6)"/>
<path id="path873" d="M37.3888 5.41989C36.4989 5.41989 35.9389 5.84993 35.629 6.32989L35.5289 5.54006H34.639V12.6994H35.6299V9.71975C35.9699 10.2896 36.5899 10.6197 37.3799 10.6197C38.8399 10.6197 39.84 9.52959 39.84 8.02972C39.84 6.52986 38.8387 5.41989 37.3888 5.41989ZM37.229 9.75989C36.2989 9.75989 35.629 9.05989 35.629 8.01992C35.629 6.98999 36.2989 6.27996 37.229 6.27996C38.1688 6.27996 38.8287 6.98999 38.8287 8.01992C38.8287 9.05965 38.1688 9.75965 37.229 9.75965V9.75989Z" fill="var(--fill-0, #0053D6)"/>
<path id="path875" d="M43.9861 8.22968L41.5659 3.50001H40.406V10.5H41.3961V5.22995L43.606 9.49994H44.3659L46.5658 5.22995V10.5H47.5558V3.50001H46.3957L43.9861 8.22968Z" fill="var(--fill-0, #0053D6)"/>
<path id="path877" d="M49.3156 5.54006H48.3256V10.5H49.3156V5.54006Z" fill="var(--fill-0, #0053D6)"/>
<path id="path879" d="M48.8156 3.29978C48.4455 3.29978 48.1658 3.55994 48.1658 3.91998C48.1658 4.28001 48.4458 4.54998 48.8156 4.54998C49.1955 4.54998 49.4757 4.28001 49.4757 3.91998C49.4757 3.55994 49.1955 3.29978 48.8156 3.29978Z" fill="var(--fill-0, #0053D6)"/>
<path id="path881" d="M52.7452 5.41989C51.9752 5.41989 51.3554 5.79999 51.0353 6.40992L50.9653 5.54006H50.0854V10.5H51.0766V7.93966C51.0766 6.85979 51.6665 6.26969 52.4766 6.26969C53.2767 6.26969 53.6867 6.75969 53.6867 7.73969V10.5H54.6667V7.63982C54.6653 6.14999 53.9352 5.41989 52.7452 5.41989Z" fill="var(--fill-0, #0053D6)"/>
<path id="path883" d="M59.4199 3.27812V6.29815C59.0799 5.72811 58.4599 5.39818 57.6601 5.39818C56.2001 5.39818 55.2101 6.48808 55.2101 7.98818C55.2101 9.48828 56.2001 10.598 57.65 10.598C58.5402 10.598 59.1 10.1682 59.4199 9.68801L59.52 10.4781H60.4099V3.27812H59.4199ZM57.8099 9.73794C56.88 9.73794 56.2099 9.02791 56.2099 7.99798C56.2099 6.95801 56.88 6.25801 57.8099 6.25801C58.7497 6.25801 59.4098 6.95801 59.4098 7.99798C59.4098 9.02791 58.75 9.73794 57.8101 9.73794H57.8099Z" fill="var(--fill-0, #0053D6)"/>
</g>
<defs>
<clipPath id="clip0_2051_39">
<rect width="60.41" height="14" fill="white"/>
</clipPath>
</defs>
</svg>
