<svg  width="auto" height="auto" overflow="visible" style="display: block;" viewBox="0 0 50 56.0095" fill="none" xmlns="http://www.w3.org/2000/svg">
<g id="Group 8528">
<path id="Path 46860" d="M7.12849 21.8204H20.4057V10.2005C20.4047 7.49548 19.3297 4.9015 17.4169 2.98874C15.5042 1.07598 12.9102 0.000971422 10.2051 6.51554e-07C7.49927 -0.00024233 4.9041 1.07423 2.99035 2.98712C1.0766 4.90001 0.000982205 7.49469 1.09863e-05 10.2005V45.8063C0.000131228 47.1463 0.264184 48.4732 0.777104 49.7112C1.29002 50.9492 2.04177 52.074 2.9894 53.0214C3.93703 53.9689 5.06198 54.7204 6.30006 55.2331C7.53814 55.7458 8.86508 56.0097 10.2051 56.0095C12.9111 56.0093 15.5062 54.9342 17.4197 53.0208C19.3331 51.1074 20.4082 48.5123 20.4084 45.8063V40.5925C16.4558 39.6243 12.9095 37.4336 10.2746 34.3323C7.63976 31.231 6.05075 27.3773 5.73391 23.3202C5.71981 23.1285 5.74541 22.936 5.80911 22.7546C5.87281 22.5732 5.97325 22.407 6.10414 22.2662C6.23504 22.1254 6.39355 22.0132 6.5698 21.9364C6.74605 21.8597 6.93626 21.8202 7.12849 21.8204Z" fill="var(--fill-0, #FBD570)"/>
<path id="Path 46861" d="M39.8004 0C37.0949 0.000242605 34.5002 1.07493 32.5869 2.98777C30.6735 4.90061 29.5981 7.49501 29.5972 10.2005V21.8204H42.8743C43.0665 21.8201 43.2566 21.8595 43.4328 21.9361C43.609 22.0127 43.7675 22.1249 43.8983 22.2656C44.0292 22.4063 44.1295 22.5726 44.1931 22.7539C44.2568 22.9352 44.2822 23.1277 44.268 23.3193C43.9512 27.376 42.3625 31.2293 39.7282 34.3305C37.0939 37.4318 33.5483 39.6228 29.5962 40.5915V45.8063C29.5965 48.5123 30.6715 51.1074 32.585 53.0208C34.4984 54.9342 37.0935 56.0093 39.7995 56.0095C41.1393 56.0094 42.4659 55.7454 43.7036 55.2326C44.9413 54.7197 46.0659 53.9681 47.0131 53.0206C47.9603 52.0732 48.7116 50.9484 49.2241 49.7105C49.7366 48.4727 50.0003 47.146 50 45.8063V10.2005C49.9998 7.49542 48.9252 4.90115 47.0124 2.98826C45.0997 1.07537 42.5056 0.000485604 39.8004 0Z" fill="var(--fill-0, #2ACEB6)"/>
<path id="Path 46862" d="M5.732 23.3192C6.04884 27.3763 7.63784 31.2299 10.2727 34.3312C12.9075 37.4325 16.4539 39.6233 20.4065 40.5914V21.8202H7.12931C6.93693 21.8197 6.74652 21.8589 6.57001 21.9354C6.3935 22.0119 6.23469 22.124 6.10351 22.2647C5.97234 22.4055 5.87163 22.5717 5.8077 22.7532C5.74377 22.9346 5.718 23.1273 5.732 23.3192Z" fill="var(--fill-0, #F97627)"/>
<path id="Path 46863" d="M42.8753 21.8202H29.5981V40.5914C33.5502 39.6226 37.0958 37.4316 39.7301 34.3304C42.3644 31.2292 43.953 27.3759 44.2698 23.3192C44.2841 23.1275 44.2586 22.9349 44.1949 22.7535C44.1313 22.5722 44.0308 22.4059 43.8999 22.2652C43.769 22.1244 43.6104 22.0123 43.4341 21.9357C43.2578 21.8591 43.0675 21.8198 42.8753 21.8202Z" fill="var(--fill-0, #6422C8)"/>
</g>
</svg>
