<svg  width="auto" height="auto" overflow="visible" style="display: block;" viewBox="0 0 10.5 10.5" fill="none" xmlns="http://www.w3.org/2000/svg">
<path id="Vector" fill-rule="evenodd" clip-rule="evenodd" d="M9.33333 0H1.16667C0.522083 0 0 0.522083 0 1.16667V9.33333C0 9.97792 0.522083 10.5 1.16667 10.5H9.33333C9.97792 10.5 10.5 9.97792 10.5 9.33333V1.16667C10.5 0.522083 9.97792 0 9.33333 0ZM3.17479 9.04167H1.60854V3.98562H3.17479V9.04167ZM2.38437 3.32354C1.8725 3.32354 1.45833 2.90646 1.45833 2.39021C1.45833 1.87396 1.8725 1.45687 2.38437 1.45687C2.89625 1.45687 3.31042 1.87396 3.31042 2.39021C3.31042 2.90646 2.89625 3.32354 2.38437 3.32354ZM9.04167 9.04167H7.48417V6.3875C7.48417 5.65979 7.20708 5.25292 6.6325 5.25292C6.00542 5.25292 5.67875 5.67583 5.67875 6.3875V9.04167H4.17667V3.98562H5.67875V4.66667C5.67875 4.66667 6.13083 3.83104 7.20271 3.83104C8.27458 3.83104 9.04312 4.48583 9.04312 5.84062V9.04167H9.04167Z" fill="var(--fill-0, black)"/>
</svg>
