<svg  width="auto" height="auto" overflow="visible" style="display: block;" viewBox="0 0 8.1 9.77757" fill="none" xmlns="http://www.w3.org/2000/svg">
<path id="Vector" d="M6.9138 6.91376L4.05 9.77756L1.1862 6.91376C0.619804 6.34736 0.234084 5.62572 0.0778178 4.8401C-0.0784483 4.05448 0.00175808 3.24016 0.308294 2.50012C0.614831 1.76008 1.13393 1.12756 1.79995 0.682545C2.46597 0.237527 3.24899 0 4.05 0C4.85101 0 5.63404 0.237527 6.30006 0.682545C6.96607 1.12756 7.48517 1.76008 7.79171 2.50012C8.09825 3.24016 8.17845 4.05448 8.02219 4.8401C7.86592 5.62572 7.4802 6.34736 6.9138 6.91376V6.91376ZM4.05 4.94996C4.2887 4.94996 4.51761 4.85514 4.6864 4.68636C4.85518 4.51758 4.95 4.28866 4.95 4.04996C4.95 3.81127 4.85518 3.58235 4.6864 3.41357C4.51761 3.24479 4.2887 3.14996 4.05 3.14996C3.81131 3.14996 3.58239 3.24479 3.41361 3.41357C3.24482 3.58235 3.15 3.81127 3.15 4.04996C3.15 4.28866 3.24482 4.51758 3.41361 4.68636C3.58239 4.85514 3.81131 4.94996 4.05 4.94996Z" fill="var(--fill-0, #99A0AE)"/>
</svg>
