<svg  width="auto" height="auto" overflow="visible" style="display: block;" viewBox="0 0 8.10045 8.1" fill="none" xmlns="http://www.w3.org/2000/svg">
<path id="Vector" d="M8.1 6.039V7.6302C8.10005 7.74413 8.05689 7.85384 7.97922 7.93719C7.90155 8.02054 7.79515 8.07133 7.6815 8.0793C7.48485 8.0928 7.3242 8.1 7.2 8.1C3.22335 8.1 0 4.87665 0 0.9C0 0.7758 0.00675 0.61515 0.0207 0.4185C0.0286751 0.30485 0.0794615 0.198455 0.162812 0.120784C0.246162 0.0431131 0.35587 -5.14949e-05 0.4698 1.15461e-07H2.061C2.11682 -5.64005e-05 2.17066 0.0206366 2.21208 0.0580592C2.25349 0.0954819 2.27952 0.146962 2.2851 0.2025C2.29545 0.306 2.3049 0.38835 2.3139 0.4509C2.40333 1.07502 2.5866 1.68202 2.8575 2.25135C2.90025 2.34135 2.87235 2.4489 2.79135 2.5065L1.82025 3.2004C2.414 4.5839 3.51655 5.68645 4.90005 6.2802L5.59305 5.3109C5.62138 5.2713 5.6627 5.2429 5.70982 5.23064C5.75694 5.21839 5.80687 5.22306 5.8509 5.24385C6.42016 5.51424 7.02701 5.69705 7.6509 5.7861C7.71345 5.7951 7.7958 5.805 7.8984 5.8149C7.95386 5.82059 8.00523 5.84666 8.04256 5.88806C8.07989 5.92946 8.10052 5.98325 8.10045 6.039H8.1Z" fill="var(--fill-0, #99A0AE)"/>
</svg>
