<svg  width="auto" height="auto" overflow="visible" style="display: block;" viewBox="0 0 9 9" fill="none" xmlns="http://www.w3.org/2000/svg">
<path id="Vector" d="M4.5 9C2.01465 9 0 6.98535 0 4.5C0 2.01465 2.01465 0 4.5 0C6.98535 0 9 2.01465 9 4.5C9 6.98535 6.98535 9 4.5 9ZM3.4695 7.95015C3.02554 7.00844 2.76834 5.9896 2.71215 4.95H0.9279C1.01546 5.6425 1.30226 6.29467 1.75346 6.82727C2.20465 7.35986 2.80081 7.74995 3.4695 7.95015V7.95015ZM3.6135 4.95C3.68145 6.04755 3.9951 7.0785 4.5 7.9884C5.01854 7.05445 5.32145 6.01627 5.3865 4.95H3.6135V4.95ZM8.0721 4.95H6.28785C6.23166 5.9896 5.97446 7.00844 5.5305 7.95015C6.19919 7.74995 6.79535 7.35986 7.24654 6.82727C7.69773 6.29467 7.98454 5.6425 8.0721 4.95V4.95ZM0.9279 4.05H2.71215C2.76834 3.0104 3.02554 1.99156 3.4695 1.04985C2.80081 1.25005 2.20465 1.64014 1.75346 2.17273C1.30226 2.70533 1.01546 3.3575 0.9279 4.05V4.05ZM3.61395 4.05H5.38605C5.32114 2.98377 5.01839 1.94559 4.5 1.0116C3.98146 1.94555 3.67855 2.98373 3.6135 4.05H3.61395ZM5.5305 1.04985C5.97446 1.99156 6.23166 3.0104 6.28785 4.05H8.0721C7.98454 3.3575 7.69773 2.70533 7.24654 2.17273C6.79535 1.64014 6.19919 1.25005 5.5305 1.04985V1.04985Z" fill="var(--fill-0, #99A0AE)"/>
</svg>
